<svg width="34" height="34" viewBox="0 0 34 34" xmlns="http://www.w3.org/2000/svg">
<path d="M5 16C4.44772 16 4 16.4477 4 17C4 17.5523 4.44772 18 5 18V16ZM29 17L29.7071 17.7071C30.0976 17.3166 30.0976 16.6834 29.7071 16.2929L29 17ZM17.7071 4.29289C17.3166 3.90237 16.6834 3.90237 16.2929 4.29289C15.9024 4.68342 15.9024 5.31658 16.2929 5.70711L17.7071 4.29289ZM16.2929 28.2929C15.9024 28.6834 15.9024 29.3166 16.2929 29.7071C16.6834 30.0976 17.3166 30.0976 17.7071 29.7071L16.2929 28.2929ZM5 18H29V16H5V18ZM16.2929 5.70711L28.2929 17.7071L29.7071 16.2929L17.7071 4.29289L16.2929 5.70711ZM28.2929 16.2929L16.2929 28.2929L17.7071 29.7071L29.7071 17.7071L28.2929 16.2929Z" fill="currentColor"/>
</svg>
