<svg width="23" height="25" viewBox="0 0 23 25" xmlns="http://www.w3.org/2000/svg">
<path d="M4.95049 19.4495C4.55997 19.84 4.55997 20.4732 4.95049 20.8637C5.34102 21.2543 5.97418 21.2543 6.36471 20.8637L4.95049 19.4495ZM16.9713 8.84291L17.9713 8.84291C17.9713 8.29063 17.5236 7.84291 16.9713 7.84291V8.84291ZM5.6576 7.84291C5.10531 7.84291 4.6576 8.29063 4.6576 8.84291C4.6576 9.3952 5.10531 9.84291 5.6576 9.84291L5.6576 7.84291ZM15.9713 20.1566C15.9713 20.7089 16.419 21.1566 16.9713 21.1566C17.5236 21.1566 17.9713 20.7089 17.9713 20.1566L15.9713 20.1566ZM6.36471 20.8637L17.6784 9.55002L16.2642 8.13581L4.95049 19.4495L6.36471 20.8637ZM5.6576 9.84291H16.9713L16.9713 7.84291H5.6576L5.6576 9.84291ZM15.9713 8.84291L15.9713 20.1566L17.9713 20.1566L17.9713 8.84291L15.9713 8.84291Z" fill="currentColor"/>
</svg>
