<svg width="1467" height="700" viewBox="0 0 1467 700" fill="none" xmlns="http://www.w3.org/2000/svg">
<path d="M1 479.37C4.81984 421.15 37.6705 309.7 138.514 329.661C264.569 354.612 314.227 457.983 432.642 404.516C551.058 351.048 512.859 201.339 612.175 194.21C711.491 187.081 959.781 276.193 1001.8 194.21C1043.82 112.226 1097.3 12.4196 1219.53 1.7261C1317.32 -6.82872 1405.43 62.3227 1437.26 97.9678" stroke="black" stroke-width="0.5"/>
<path d="M4.82031 639.773C12.46 621.95 92.6767 468.677 237.831 532.838C382.985 596.999 554.878 793.047 658.014 639.773C761.149 486.499 768.789 493.628 822.267 493.628C875.745 493.628 1120.21 611.257 1188.97 532.838C1257.73 454.418 1230.99 354.612 1330.31 361.741C1409.76 367.444 1452.54 404.515 1464 422.338" stroke="#EF6337" stroke-width="5"/>
<path d="M1.09277 483.243C5.00578 426.008 39.0117 313.537 140.936 334.577C267.457 360.484 320.096 466.116 438.139 410.214C556.181 354.312 519.101 208.428 617.299 201.473C715.497 194.518 963.693 284.326 1006.36 202.429C1049.03 120.532 1100.56 20.726 1222.23 10.4672C1319.57 2.26013 1406.58 70.6291 1437.91 105.84" stroke="#060201" stroke-width="0.609756"/>
<path d="M1.18652 487.117C5.1927 430.867 40.3539 317.377 143.359 339.494C270.346 366.358 325.966 474.25 443.636 415.914C561.306 357.577 525.344 215.519 622.424 208.737C719.503 201.956 967.607 292.46 1010.93 210.65C1054.25 128.84 1103.82 29.034 1224.93 19.2099C1321.83 11.3505 1407.73 78.9371 1438.57 113.713" stroke="#0C0503" stroke-width="0.719512"/>
<path d="M1.2793 490.991C5.37864 435.727 41.6951 321.217 145.781 344.412C273.234 372.232 331.836 482.384 449.133 421.614C566.43 360.843 531.585 222.61 627.547 216.003C723.509 209.395 971.52 300.595 1015.49 218.872C1059.47 137.149 1107.08 37.3426 1227.64 27.9532C1324.08 20.4416 1408.88 87.2457 1439.22 121.587" stroke="#110704" stroke-width="0.829268"/>
<path d="M1.37305 494.868C5.56556 440.589 43.0373 325.058 148.204 349.332C276.122 378.108 337.706 490.521 454.63 427.316C571.555 364.111 537.828 229.703 632.672 223.27C727.516 216.836 975.433 308.731 1020.06 227.095C1064.69 145.459 1110.34 45.6529 1230.34 36.6982C1326.34 29.5344 1410.03 95.556 1439.87 129.462" stroke="#170A05" stroke-width="0.939024"/>
<path d="M1.46582 498.745C5.7515 445.451 44.3785 328.9 150.626 354.252C279.01 383.985 343.575 498.658 460.127 433.019C576.678 367.38 544.07 236.797 637.796 230.537C731.522 224.278 979.346 316.868 1024.62 235.319C1069.9 153.77 1113.6 53.9639 1233.04 45.4439C1328.59 38.6279 1411.17 103.867 1440.52 137.339" stroke="#1D0C07" stroke-width="1.04878"/>
<path d="M1.55859 502.624C5.93744 450.315 45.7197 332.745 153.048 359.174C281.898 389.864 349.444 506.797 465.623 438.724C581.802 370.65 550.312 243.893 642.92 237.807C735.528 231.721 983.258 325.007 1029.19 243.545C1075.12 162.083 1116.86 62.2768 1235.74 54.1914C1330.85 47.7231 1412.32 112.18 1441.17 145.217" stroke="#230E08" stroke-width="1.15854"/>
<path d="M1.65234 506.504C6.12436 455.181 47.0619 336.59 155.471 364.097C284.787 395.743 355.314 514.937 471.12 444.429C586.927 373.921 556.555 250.989 648.044 245.077C739.534 239.166 987.172 333.147 1033.76 251.772C1080.34 170.397 1120.12 70.5905 1238.44 62.9398C1333.1 56.8193 1413.47 120.494 1441.83 153.096" stroke="#291109" stroke-width="1.26829"/>
<path d="M1.74512 510.385C6.3103 460.047 48.4031 340.436 157.893 369.022C287.674 401.624 361.183 523.078 476.617 450.136C592.051 377.194 562.796 258.087 653.168 252.349C743.54 246.611 991.085 341.288 1038.32 260C1085.56 178.712 1123.38 78.9056 1241.14 71.6896C1335.36 65.9168 1414.62 128.809 1442.48 160.976" stroke="#2F130B" stroke-width="1.37805"/>
<path d="M1.83887 514.268C6.49721 464.916 49.7453 344.285 160.316 373.948C290.563 407.507 367.053 531.221 482.114 455.845C597.175 380.469 569.039 265.187 658.293 259.623C747.547 254.059 994.998 349.431 1042.89 268.23C1090.77 187.029 1126.64 87.2226 1243.85 80.4414C1337.61 75.0164 1415.77 137.126 1443.13 168.859" stroke="#34160C" stroke-width="1.4878"/>
<path d="M1.93164 518.152C6.68315 469.785 51.0865 348.134 162.738 378.876C293.451 413.391 372.922 539.366 487.611 461.555C602.299 383.744 575.281 272.288 663.417 266.898C751.553 261.508 998.911 357.576 1047.45 276.461C1095.99 195.347 1129.9 95.5408 1246.55 89.1942C1339.86 84.117 1416.92 145.444 1443.78 176.742" stroke="#3A180D" stroke-width="1.59756"/>
<path d="M2.02441 522.039C6.86909 474.657 52.4277 351.986 165.16 383.805C296.339 419.277 378.791 547.512 493.107 467.267C607.423 387.022 581.523 279.391 668.541 274.175C755.558 268.959 1002.82 365.722 1052.02 284.695C1101.21 203.667 1133.16 103.861 1249.25 97.9492C1342.12 93.2197 1418.07 153.764 1444.43 184.628" stroke="#401B0F" stroke-width="1.70732"/>
<path d="M2.11816 525.926C7.05601 479.53 53.7699 355.838 167.583 388.736C299.227 425.164 384.662 555.66 498.605 472.98C612.548 390.301 587.765 286.496 673.665 281.453C759.565 276.411 1006.74 373.87 1056.58 292.929C1106.43 211.989 1136.43 112.183 1251.95 106.705C1344.37 102.324 1419.22 162.086 1445.09 192.514" stroke="#461D10" stroke-width="1.81707"/>
<path d="M2.21094 529.816C7.24195 484.404 55.1111 359.693 170.005 393.669C302.115 431.053 390.531 563.809 504.101 478.695C617.672 393.582 594.007 293.602 678.789 288.733C763.571 283.865 1010.65 382.019 1061.15 301.166C1111.64 220.312 1139.69 120.506 1254.65 115.463C1346.63 111.429 1420.37 170.409 1445.74 200.403" stroke="#4C1F11" stroke-width="1.92683"/>
<path d="M2.30469 533.707C7.42887 489.282 56.4533 363.55 172.427 398.604C305.004 436.944 396.401 571.961 509.599 484.413C622.796 396.865 600.25 300.71 683.914 296.016C767.578 291.321 1014.56 390.171 1065.71 309.404C1116.86 228.638 1142.95 128.832 1257.36 124.224C1348.88 120.538 1421.52 178.735 1446.39 208.294" stroke="#522213" stroke-width="2.03659"/>
<path d="M2.39746 537.601C7.61481 494.16 57.7945 367.409 174.849 403.541C307.892 442.837 402.27 580.114 515.095 490.132C627.92 400.15 606.492 307.82 689.038 303.3C771.584 298.779 1018.48 398.324 1070.28 317.645C1122.08 236.965 1146.21 137.159 1260.06 132.986C1351.14 129.647 1422.67 187.062 1447.04 216.187" stroke="#572414" stroke-width="2.14634"/>
<path d="M2.49121 541.497C7.80172 499.041 59.1367 371.27 177.272 408.48C310.781 448.732 408.14 588.27 520.592 495.854C633.045 403.437 612.735 314.933 694.162 310.586C775.59 306.239 1022.39 406.48 1074.84 325.887C1127.3 245.295 1149.47 145.489 1262.76 141.75C1353.39 138.759 1423.81 195.392 1447.7 224.082" stroke="#5D2715" stroke-width="2.2561"/>
<path d="M2.58398 545.394C7.98767 503.924 60.4779 375.133 179.694 413.421C313.668 454.63 414.009 596.428 526.089 501.577C638.169 406.726 618.976 322.047 699.286 317.874C779.596 313.701 1026.3 414.638 1079.41 334.132C1132.51 253.626 1152.73 153.82 1265.46 150.516C1355.65 147.873 1424.96 203.723 1448.35 231.978" stroke="#632917" stroke-width="2.36585"/>
<path d="M2.67676 549.295C8.17361 508.81 61.8191 378.998 182.116 418.364C316.556 460.53 419.878 604.588 531.585 507.303C643.292 410.018 625.218 329.165 704.41 325.165C783.602 321.166 1030.21 422.798 1083.97 342.379C1137.73 261.961 1155.99 162.154 1268.16 159.285C1357.9 156.99 1426.11 212.057 1449 239.878" stroke="#692B18" stroke-width="2.47561"/>
<path d="M2.77051 553.197C8.36052 513.698 63.1613 382.866 184.539 423.31C319.445 466.432 425.748 612.75 537.083 513.031C648.417 413.312 631.461 336.284 709.535 332.458C787.609 328.633 1034.13 430.961 1088.54 350.629C1142.95 270.297 1159.25 170.491 1270.87 168.056C1360.16 166.109 1427.26 220.394 1449.65 247.78" stroke="#6F2E19" stroke-width="2.58537"/>
<path d="M2.86328 557.103C8.54646 518.589 64.5025 386.737 186.961 428.259C322.333 472.337 431.617 620.916 542.579 518.762C653.541 416.609 637.703 343.406 714.659 339.755C791.614 336.103 1038.04 439.126 1093.1 358.881C1148.16 278.636 1162.51 178.83 1273.57 176.83C1362.41 175.231 1428.41 228.733 1450.3 255.684" stroke="#75301B" stroke-width="2.69512"/>
<path d="M2.95703 561.01C8.73338 523.482 65.8447 390.61 189.384 433.21C325.221 478.244 437.488 629.084 548.077 524.496C658.666 419.908 643.945 350.531 719.783 347.053C795.621 343.575 1041.95 447.294 1097.67 367.136C1153.38 286.978 1165.77 187.172 1276.27 185.607C1364.67 184.355 1429.56 237.075 1450.96 263.591" stroke="#7A331C" stroke-width="2.80488"/>
<path d="M3.0498 564.921C8.91932 528.378 67.1859 394.485 191.806 438.164C328.109 484.155 443.357 637.255 553.573 530.232C663.79 423.21 650.187 357.658 724.907 354.354C799.627 351.051 1045.87 455.465 1102.23 375.394C1158.6 295.323 1169.03 195.516 1278.97 194.386C1366.92 193.482 1430.71 245.419 1451.61 271.501" stroke="#80351E" stroke-width="2.91463"/>
<path d="M3.14258 568.835C9.10526 533.277 68.5271 398.365 194.228 443.121C330.997 490.069 449.226 645.429 559.07 535.972C668.913 426.516 656.429 364.789 730.031 361.659C803.633 358.529 1049.78 463.639 1106.8 383.655C1163.82 303.671 1172.29 203.865 1281.67 203.169C1369.17 202.613 1431.86 253.768 1452.26 279.415" stroke="#86381F" stroke-width="3.02439"/>
<path d="M3.23633 572.752C9.29218 538.18 69.8693 402.247 196.651 448.082C333.886 495.985 455.096 653.606 564.567 541.715C674.038 429.824 662.672 371.923 735.156 368.967C807.639 366.011 1053.69 471.816 1111.36 391.919C1169.03 312.022 1175.56 212.216 1284.37 211.955C1371.43 211.746 1433.01 262.119 1452.91 287.331" stroke="#8C3A20" stroke-width="3.13415"/>
<path d="M3.3291 576.674C9.47812 543.086 71.2105 406.134 199.073 453.046C336.773 501.906 460.965 661.787 570.063 547.462C679.162 433.137 668.914 379.061 740.279 376.279C811.645 373.497 1057.61 479.997 1115.93 400.187C1174.25 320.377 1178.82 220.57 1287.08 220.744C1373.68 220.883 1434.16 270.474 1453.57 295.251" stroke="#923C22" stroke-width="3.2439"/>
<path d="M3.42285 580.597C9.66503 547.995 72.5527 410.022 201.496 458.013C339.662 507.829 466.835 669.971 575.561 553.211C684.287 436.452 675.156 386.201 745.404 383.593C815.652 380.985 1061.52 488.181 1120.49 408.457C1179.47 328.734 1182.08 228.928 1289.78 229.536C1375.94 230.023 1435.31 278.831 1454.22 303.174" stroke="#983F23" stroke-width="3.35366"/>
<path d="M3.51562 584.523C9.85098 552.906 73.8939 413.914 203.918 462.982C342.55 513.755 472.704 678.157 581.057 558.963C689.41 439.77 681.398 393.344 750.528 390.91C819.658 388.475 1065.43 496.367 1125.06 416.731C1184.69 337.094 1185.34 237.288 1292.48 238.331C1378.19 239.166 1436.45 287.191 1454.87 311.099" stroke="#9D4124" stroke-width="3.46341"/>
<path d="M3.6084 588.453C10.0369 557.821 75.2351 417.809 206.34 467.955C345.438 519.684 478.573 686.346 586.554 564.718C694.534 443.09 687.64 400.49 755.652 398.23C823.664 395.969 1069.34 504.557 1129.62 425.007C1189.9 345.458 1188.6 245.652 1295.18 247.13C1380.45 248.312 1437.6 295.555 1455.52 319.028" stroke="#A34426" stroke-width="3.57317"/>
<path d="M3.70215 592.385C10.2238 562.738 76.5773 421.706 208.763 472.93C348.327 525.615 484.443 694.538 592.051 570.476C699.659 446.414 693.883 407.639 760.776 405.552C827.67 403.466 1073.26 512.748 1134.19 433.286C1195.12 353.823 1191.86 254.017 1297.88 255.93C1382.7 257.46 1438.75 303.92 1456.17 326.959" stroke="#A94627" stroke-width="3.68293"/>
<path d="M3.79492 596.32C10.4098 567.659 77.9185 425.606 211.184 477.908C351.214 531.55 490.313 702.733 597.548 576.237C704.783 449.74 700.124 414.791 765.9 412.878C831.676 410.965 1077.17 520.943 1138.75 441.568C1200.34 362.192 1195.12 262.386 1300.59 264.734C1384.96 266.611 1439.9 312.289 1456.83 334.893" stroke="#AF4828" stroke-width="3.79268"/>
<path d="M3.88867 600.257C10.5967 572.581 79.2607 429.508 213.607 482.889C354.103 537.487 496.183 710.931 603.045 582C709.908 453.069 706.367 421.945 771.025 420.206C835.683 418.467 1081.08 529.141 1143.32 449.852C1205.56 370.563 1198.38 270.757 1303.29 273.539C1387.21 275.765 1441.05 320.66 1457.48 342.83" stroke="#B54B2A" stroke-width="3.90244"/>
<path d="M3.98145 604.197C10.7826 577.507 80.6019 433.414 216.029 487.873C356.991 543.427 502.052 719.131 608.542 587.766C715.031 456.401 712.609 429.102 776.149 427.537C839.689 425.972 1085 537.341 1147.88 458.139C1210.77 378.938 1201.64 279.132 1305.99 282.348C1389.47 284.922 1442.2 329.035 1458.13 350.769" stroke="#BB4D2B" stroke-width="4.0122"/>
<path d="M4.07422 608.14C10.9686 582.435 81.9431 437.322 218.451 492.858C359.879 549.369 507.921 727.333 614.038 593.534C720.155 459.735 718.851 436.261 781.273 434.87C843.694 433.479 1088.91 545.544 1152.45 466.429C1215.99 387.314 1204.9 287.508 1308.69 291.159C1391.72 294.081 1443.35 337.411 1458.78 358.711" stroke="#C0502C" stroke-width="4.12195"/>
<path d="M4.16797 612.085C11.1555 587.365 83.2853 441.232 220.874 497.847C362.767 555.314 513.791 735.539 619.535 599.305C725.28 463.071 725.094 443.423 786.397 442.206C847.701 440.988 1092.82 553.749 1157.02 474.721C1221.21 395.693 1208.16 295.887 1311.39 299.973C1393.98 303.242 1444.5 345.79 1459.44 366.655" stroke="#C6522E" stroke-width="4.23171"/>
<path d="M4.26074 616.033C11.3414 592.299 84.6265 445.145 223.296 502.838C365.655 561.261 519.66 743.747 625.032 605.079C730.404 466.411 731.335 450.588 791.521 449.544C851.707 448.501 1096.74 561.957 1161.58 483.016C1226.42 404.075 1211.42 304.269 1314.09 308.79C1396.23 312.406 1445.65 354.172 1460.09 374.603" stroke="#CC552F" stroke-width="4.34146"/>
<path d="M4.35449 619.983C11.5283 597.234 85.9687 449.061 225.719 507.832C368.544 567.211 525.53 751.957 630.529 610.855C735.528 469.752 737.578 457.755 796.646 456.885C855.714 456.016 1100.65 570.167 1166.15 491.313C1231.64 412.459 1214.69 312.653 1316.8 317.609C1398.49 321.573 1446.8 362.556 1460.74 382.552" stroke="#D25730" stroke-width="4.45122"/>
<path d="M4.44727 623.936C11.7143 602.172 87.3099 452.979 228.141 512.828C371.432 573.164 531.399 760.17 636.026 616.633C740.652 473.096 743.82 464.924 801.77 464.229C859.72 463.533 1104.56 578.38 1170.71 499.613C1236.86 420.846 1217.95 321.04 1319.5 326.43C1400.74 330.742 1447.94 370.943 1461.39 390.504" stroke="#D85932" stroke-width="4.56098"/>
<path d="M4.54004 627.892C11.9002 607.113 88.6511 456.9 230.563 517.827C374.32 579.119 537.268 768.386 641.522 622.415C745.776 476.444 750.062 472.097 806.893 471.575C863.725 471.053 1108.47 586.596 1175.28 507.916C1242.08 429.236 1221.21 329.429 1322.2 335.254C1402.99 339.914 1449.09 379.333 1462.04 398.459" stroke="#DE5C33" stroke-width="4.67073"/>
<path d="M4.63379 631.85C12.0871 612.056 89.9933 460.823 232.986 522.828C377.208 585.076 543.139 776.603 647.02 628.198C750.901 479.793 756.304 479.271 812.018 478.923C867.732 478.576 1112.39 594.813 1179.84 516.22C1247.29 437.627 1224.47 337.821 1324.9 344.081C1405.25 349.088 1450.24 387.724 1462.7 406.416" stroke="#E35E34" stroke-width="4.78049"/>
<path d="M4.72656 635.81C12.2731 617.002 91.3345 464.749 235.408 527.832C380.096 591.037 549.008 784.824 652.516 633.985C756.025 483.145 762.546 486.449 817.142 486.275C871.738 486.101 1116.3 603.034 1184.41 524.528C1252.51 446.022 1227.73 346.216 1327.6 352.91C1407.5 358.265 1451.39 396.119 1463.35 414.376" stroke="#E96136" stroke-width="4.89024"/>
</svg>
