<svg width="1846" height="410" viewBox="0 0 1846 410" fill="none" xmlns="http://www.w3.org/2000/svg">
<path d="M174.232 170.364L174.207 170.613L174.232 170.364ZM1536.03 -42.5286L1536.02 -42.7784L1536.03 -42.5286ZM1.248 267.586C3.64627 248.749 15.1644 221.272 41.9368 200.123C68.7034 178.977 110.74 164.139 174.207 170.613L174.258 170.116C110.687 163.631 68.5141 178.49 41.6268 199.73C14.7453 220.966 3.16574 248.564 0.752002 267.523L1.248 267.586ZM174.207 170.613C253.579 178.71 308.881 199.525 363.039 213.994C417.199 228.464 470.175 236.571 544.814 219.203L544.7 218.716C470.167 236.059 417.278 227.967 363.168 213.511C309.056 199.055 253.682 178.218 174.258 170.116L174.207 170.613ZM544.814 219.203C582.136 210.518 607.132 197.922 625.585 183.833C644.036 169.745 655.933 154.172 667.061 139.565C678.192 124.953 688.545 111.32 703.918 101.042C719.284 90.7688 739.688 83.8359 770.931 82.6801L770.912 82.1805C739.599 83.3388 719.101 90.2902 703.64 100.626C688.187 110.958 677.787 124.66 666.663 139.262C655.535 153.87 643.673 169.393 625.282 183.435C606.893 197.476 581.964 210.045 544.7 218.716L544.814 219.203ZM770.931 82.6801C802.192 81.5237 845.185 84.2702 892.931 88.2115C940.669 92.1521 993.157 97.287 1043.38 100.903C1093.61 104.519 1141.59 106.617 1180.33 104.483C1199.7 103.416 1216.77 101.29 1230.65 97.7637C1244.53 94.2387 1255.26 89.3069 1261.92 82.6066L1261.57 82.254C1255 88.8594 1244.38 93.7624 1230.53 97.2791C1216.69 100.794 1199.66 102.917 1180.3 103.983C1141.6 106.116 1093.64 104.02 1043.42 100.404C993.195 96.7885 940.722 91.6548 892.972 87.7132C845.229 83.7722 802.207 81.0228 770.912 82.1805L770.931 82.6801ZM1261.92 82.6066C1288.39 55.9962 1318.44 26.5145 1361.12 2.81399C1403.79 -20.8849 1459.09 -38.8094 1536.04 -42.2789L1536.02 -42.7784C1458.99 -39.3057 1403.62 -21.3624 1360.87 2.37688C1318.13 26.1145 1288.04 55.6412 1261.57 82.254L1261.92 82.6066ZM1536.04 -42.2789C1659.17 -47.83 1770.12 -2.95531 1810.19 20.1674L1810.44 19.7343C1770.31 -3.4241 1659.27 -48.3347 1536.02 -42.7784L1536.04 -42.2789Z" fill="white"/>
<path opacity="0.7" d="M5.8125 369.848C15.4365 358.278 116.489 258.774 299.345 300.427C482.201 342.08 698.742 469.353 828.666 369.848C958.59 270.344 973.076 268.151 1040.44 268.151C1107.81 268.151 1410.92 351.336 1497.54 300.427C1584.15 249.518 1550.47 184.724 1675.58 189.352C1775.67 193.055 1829.56 217.121 1844 228.691" stroke="#222222" stroke-width="5"/>
<path opacity="0.990323" d="M1.15625 270.821C6.12349 233.871 49.4316 160.642 178.269 174.526C337.842 191.546 405.365 260.594 553.916 223.793C702.468 186.992 656.367 92.8664 779.617 88.3876C902.866 83.9088 1215.34 142.577 1269.35 89.4287C1323.37 36.2802 1387.48 -28.5134 1540.53 -35.0823C1662.98 -40.3374 1772.13 3.88339 1811.4 26.6507" stroke="#F8F8F8" stroke-width="0.645161"/>
<path opacity="0.980645" d="M1.31055 274.088C6.43301 237.984 51.6659 163.879 182.304 178.689C342.653 196.53 415.143 267.519 563.074 228.628C711.004 189.737 666.923 98.6756 788.31 94.3461C909.697 90.0166 1221.85 149.502 1276.96 96.4284C1332.06 43.3545 1392.91 -21.439 1545.03 -27.6347C1666.73 -32.5913 1774.04 10.9577 1812.49 33.3518" stroke="#F1F1F1" stroke-width="0.790323"/>
<path opacity="0.970968" d="M1.46484 277.356C6.74253 242.098 53.9002 167.118 186.339 182.853C347.464 201.515 424.922 274.445 572.231 233.464C719.541 192.483 677.479 104.486 797.004 100.306C916.528 96.1253 1228.37 156.428 1284.56 103.429C1340.76 50.4297 1398.34 -14.3638 1549.53 -20.1863C1670.49 -24.8442 1775.96 18.0329 1813.57 40.0538" stroke="#EAEAEA" stroke-width="0.935484"/>
<path opacity="0.96129" d="M1.62109 280.626C7.05401 246.214 56.1365 170.358 190.376 187.019C352.277 206.502 434.702 281.373 581.391 238.302C728.079 195.23 688.037 110.298 805.699 106.267C923.36 102.236 1234.89 163.356 1292.17 110.431C1349.45 57.5068 1403.78 -7.28674 1554.04 -12.736C1674.24 -17.0953 1777.87 25.11 1814.66 46.7576" stroke="#E2E2E2" stroke-width="1.08065"/>
<path opacity="0.951613" d="M1.77734 283.898C7.36548 250.332 58.3728 173.6 194.413 191.186C357.09 211.49 444.482 288.302 590.55 243.141C736.618 197.979 698.596 116.111 814.394 112.23C930.193 108.348 1241.41 170.285 1299.78 117.435C1358.14 64.5853 1409.21 -0.208168 1558.54 -5.28416C1678 -9.34495 1779.79 32.1886 1815.75 53.4629" stroke="#DBDBDB" stroke-width="1.22581"/>
<path opacity="0.941935" d="M1.93164 287.171C7.67501 254.45 60.6071 176.842 198.448 195.355C361.901 216.48 454.261 295.232 599.707 247.981C745.154 200.729 709.152 121.926 823.088 118.193C937.023 114.461 1247.93 177.216 1307.38 124.44C1366.83 71.665 1414.64 6.8715 1563.04 2.16875C1681.76 -1.59346 1781.7 39.2683 1816.84 60.1694" stroke="#D4D4D4" stroke-width="1.37097"/>
<path opacity="0.932258" d="M2.08594 290.445C7.98453 258.571 62.8414 180.087 202.483 199.526C366.712 221.472 464.039 302.165 608.865 252.823C753.691 203.482 719.708 127.743 831.781 124.159C943.854 120.576 1254.45 184.148 1314.99 131.448C1375.53 78.7468 1420.08 13.9533 1567.54 9.62382C1685.51 6.1602 1783.62 46.3501 1817.92 66.878" stroke="#CDCDCD" stroke-width="1.51613"/>
<path opacity="0.922581" d="M2.24219 293.722C8.29601 262.694 65.0777 183.334 206.52 203.698C371.525 226.465 473.819 309.099 618.024 257.668C762.229 206.236 730.266 133.561 840.476 130.127C950.687 126.694 1260.97 191.083 1322.6 138.457C1384.22 85.8305 1425.51 21.037 1572.04 17.0807C1689.27 13.9157 1785.53 53.4337 1819.01 73.5884" stroke="#C6C6C6" stroke-width="1.66129"/>
<path opacity="0.912903" d="M2.39844 297.001C8.60748 266.818 67.314 186.583 210.557 207.872C376.338 231.461 483.599 316.036 627.184 262.514C770.768 208.992 740.824 139.381 849.171 136.097C957.519 132.813 1267.49 198.019 1330.2 145.467C1392.91 92.916 1430.94 28.1225 1576.55 24.5395C1693.03 21.673 1787.45 60.5193 1820.1 80.3007" stroke="#BFBFBF" stroke-width="1.80645"/>
<path opacity="0.903226" d="M2.55273 300.281C8.91701 270.944 69.5483 189.833 214.592 212.048C381.149 236.458 493.378 322.973 636.341 267.361C779.304 211.75 751.38 145.203 857.865 142.068C964.35 138.933 1274.01 204.957 1337.81 152.48C1401.61 100.003 1436.38 35.2096 1581.05 31.9998C1696.78 29.4319 1789.36 67.6063 1821.18 87.0145" stroke="#B8B8B8" stroke-width="1.95161"/>
<path opacity="0.893548" d="M2.70703 303.563C9.22653 275.073 71.7827 193.086 218.627 216.227C385.96 241.457 503.156 329.914 645.498 272.212C787.841 214.51 761.936 151.028 866.558 148.042C971.181 145.056 1280.53 211.897 1345.41 159.495C1410.3 107.093 1441.81 42.2993 1585.55 39.4628C1700.54 37.1935 1791.27 74.6961 1822.27 93.7311" stroke="#B1B1B1" stroke-width="2.09677"/>
<path opacity="0.883871" d="M2.86328 306.849C9.538 279.204 74.0189 196.341 222.663 220.407C390.773 246.459 512.936 336.857 654.658 277.064C796.379 217.272 772.494 156.855 875.253 154.019C978.013 151.182 1287.05 218.84 1353.02 166.512C1418.99 114.185 1447.24 49.3914 1590.05 46.9281C1704.3 44.9574 1793.19 81.7882 1823.36 100.45" stroke="#A9A9A9" stroke-width="2.24194"/>
<path opacity="0.874194" d="M3.01758 310.136C9.84753 283.338 76.2533 199.599 226.698 224.591C395.584 251.464 522.715 343.802 663.815 281.92C804.916 220.037 783.05 162.685 883.947 159.997C984.844 157.31 1293.57 225.785 1360.63 173.532C1427.68 121.28 1452.67 56.486 1594.55 54.3959C1708.05 52.7238 1795.1 88.8828 1824.44 107.171" stroke="#A2A2A2" stroke-width="2.3871"/>
<path opacity="0.864516" d="M3.17383 313.426C10.159 287.474 78.4895 202.859 230.735 228.776C400.397 256.47 532.495 350.749 672.974 286.777C813.454 222.805 793.608 168.516 892.642 165.978C991.676 163.44 1300.09 232.733 1368.23 180.554C1436.38 128.376 1458.11 63.5828 1599.05 61.8659C1711.81 60.4924 1797.02 95.9795 1825.53 113.895" stroke="#9B9B9B" stroke-width="2.53226"/>
<path opacity="0.854839" d="M3.32812 316.719C10.4685 291.613 80.7239 206.122 234.77 232.965C405.209 261.48 542.273 357.7 682.132 291.638C821.991 225.575 804.164 174.351 901.335 171.963C998.507 169.574 1306.61 239.684 1375.84 187.58C1445.07 135.476 1463.54 70.6829 1603.55 69.3393C1715.57 68.2644 1798.93 103.08 1826.61 120.622" stroke="#949494" stroke-width="2.67742"/>
<path opacity="0.845161" d="M3.48438 320.015C10.78 295.755 82.9601 209.389 238.807 237.157C410.022 266.494 552.053 364.654 691.291 296.502C830.529 228.349 814.722 180.189 910.031 177.95C1005.34 175.711 1313.13 246.637 1383.44 194.609C1453.76 142.58 1468.97 77.7862 1608.06 76.8158C1719.32 76.0394 1800.85 110.183 1827.7 127.352" stroke="#8D8D8D" stroke-width="2.82258"/>
<path opacity="0.835484" d="M3.63867 323.315C11.0895 299.901 85.1945 212.658 242.842 241.353C414.833 271.51 561.832 371.611 700.449 301.369C839.066 231.126 825.278 186.031 918.724 183.941C1012.17 181.851 1319.65 253.595 1391.05 201.641C1462.45 149.686 1474.41 84.8928 1612.56 84.2956C1723.08 83.8178 1802.76 117.29 1828.79 134.085" stroke="#868686" stroke-width="2.96774"/>
<path opacity="0.825806" d="M3.79297 326.618C11.399 304.05 87.4288 215.932 246.877 245.552C419.644 276.53 571.61 378.572 709.606 306.24C847.602 233.907 835.834 191.876 927.417 189.935C1019 187.994 1326.16 260.556 1398.65 208.676C1471.15 156.796 1479.84 92.003 1617.06 91.7791C1726.83 91.5999 1804.67 124.4 1829.87 140.822" stroke="#7F7F7F" stroke-width="3.1129"/>
<path opacity="0.816129" d="M3.94922 329.925C11.7105 308.203 89.6651 219.209 250.914 249.754C424.457 281.554 581.39 385.537 718.765 311.114C856.141 236.691 846.392 197.725 936.113 195.933C1025.83 194.142 1332.68 267.52 1406.26 215.715C1479.84 163.91 1485.27 99.1166 1621.56 99.2659C1730.59 99.3853 1806.59 131.513 1830.96 147.562" stroke="#787878" stroke-width="3.25806"/>
<path opacity="0.806452" d="M4.10547 333.235C12.022 312.359 91.9014 222.489 254.951 253.96C429.27 286.581 591.171 392.505 727.925 315.992C864.679 239.479 856.95 203.577 944.808 201.935C1032.67 200.292 1339.21 274.488 1413.87 222.758C1488.53 171.028 1490.71 106.234 1626.06 106.757C1734.35 107.175 1808.51 138.631 1832.05 154.307" stroke="#707070" stroke-width="3.40323"/>
<path opacity="0.796774" d="M4.25977 336.549C12.3315 316.519 94.1357 225.773 258.986 258.17C434.081 291.611 600.949 399.476 737.082 320.873C873.215 242.27 867.506 209.432 953.501 207.94C1039.5 206.447 1345.72 281.459 1421.47 229.804C1497.22 178.148 1496.14 113.355 1630.56 114.25C1738.1 114.967 1810.42 145.751 1833.13 161.054" stroke="#696969" stroke-width="3.54839"/>
<path opacity="0.787097" d="M4.41406 339.865C12.641 320.681 96.37 229.059 263.021 262.382C438.892 296.645 610.727 406.45 746.24 325.757C881.752 245.064 878.062 215.291 962.195 213.947C1046.33 212.603 1352.24 288.433 1429.08 236.852C1505.92 185.271 1501.57 120.478 1635.06 121.747C1741.86 122.762 1812.33 152.875 1834.22 167.804" stroke="#626262" stroke-width="3.69355"/>
<path opacity="0.777419" d="M4.57031 343.185C12.9525 324.847 98.6063 232.349 267.058 266.597C443.705 301.681 620.508 413.428 755.399 330.644C890.29 247.861 888.62 221.152 970.89 219.958C1053.16 218.764 1358.76 295.411 1436.69 243.905C1514.61 192.398 1507 127.605 1639.57 129.247C1745.62 130.561 1814.25 160.001 1835.31 174.558" stroke="#5B5B5B" stroke-width="3.83871"/>
<path opacity="0.767742" d="M4.72656 346.508C13.264 329.016 100.843 235.642 271.095 270.816C448.518 306.721 630.288 420.408 764.558 335.535C898.829 250.661 899.178 227.017 979.585 225.972C1059.99 224.927 1365.28 302.391 1444.29 250.96C1523.3 199.528 1512.44 134.735 1644.07 136.75C1749.38 138.362 1816.16 167.131 1836.39 181.314" stroke="#545454" stroke-width="3.98387"/>
<path opacity="0.758065" d="M4.88086 349.834C13.5735 333.187 103.077 238.938 275.13 275.037C453.329 311.764 640.066 427.392 773.716 340.428C907.365 253.464 909.734 232.885 988.279 231.989C1066.82 231.093 1371.8 309.375 1451.9 258.018C1532 206.661 1517.87 141.867 1648.57 144.256C1753.13 146.167 1818.08 174.264 1837.48 188.074" stroke="#4D4D4D" stroke-width="4.12903"/>
<path opacity="0.748387" d="M5.03516 353.162C13.883 337.362 105.311 242.237 279.164 279.262C458.14 316.809 649.844 434.378 782.873 345.324C915.902 256.27 920.29 238.755 996.972 238.009C1073.65 237.262 1378.32 316.361 1459.5 265.079C1540.69 213.796 1523.3 149.003 1653.07 151.765C1756.89 153.974 1819.99 181.399 1838.57 194.836" stroke="#464646" stroke-width="4.27419"/>
<path opacity="0.73871" d="M5.19141 356.494C14.1945 341.539 107.548 245.539 283.201 283.489C462.953 321.857 659.625 441.367 792.033 350.223C924.44 259.079 930.848 244.629 1005.67 244.031C1080.49 243.434 1384.84 323.35 1467.11 272.143C1549.38 220.935 1528.74 156.141 1657.57 159.277C1760.64 161.785 1821.91 188.538 1839.65 201.601" stroke="#3F3F3F" stroke-width="4.41935"/>
<path opacity="0.729032" d="M5.34766 359.828C14.506 345.72 109.784 248.843 287.238 287.719C467.766 326.909 669.405 448.359 801.192 355.125C932.979 261.892 941.406 250.505 1014.36 250.057C1087.32 249.609 1391.36 330.343 1474.72 279.21C1558.07 228.076 1534.17 163.283 1662.08 166.791C1764.4 169.598 1823.82 195.68 1840.74 208.37" stroke="#373737" stroke-width="4.56452"/>
<path opacity="0.719355" d="M5.5 363.166C14.8136 349.903 112.016 252.151 291.271 291.953C472.575 331.963 679.181 455.355 810.347 360.031C941.513 264.706 951.96 256.384 1023.05 256.086C1094.15 255.787 1397.88 337.338 1482.32 286.279C1566.76 235.221 1539.6 170.427 1666.57 174.309C1768.15 177.414 1825.73 202.824 1841.82 215.141" stroke="#303030" stroke-width="4.70968"/>
<path opacity="0.709677" d="M5.65625 366.506C15.125 354.09 114.252 255.461 295.308 296.189C477.388 337.02 688.962 462.353 819.507 364.938C950.052 267.524 962.518 262.267 1031.75 262.117C1100.98 261.968 1404.4 344.336 1489.93 293.352C1575.46 242.368 1545.03 177.575 1671.08 181.83C1771.91 185.233 1827.65 209.971 1842.91 221.915" stroke="#292929" stroke-width="4.85484"/>
</svg>
