<svg width="72" height="72" viewBox="0 0 72 72" fill="none" xmlns="http://www.w3.org/2000/svg">
<path fill-rule="evenodd" clip-rule="evenodd" d="M38.6719 15.4688V4.78125C38.6719 3.30561 37.4756 2.10938 36 2.10938C34.5244 2.10938 33.3281 3.30561 33.3281 4.78125V15.4688C33.3281 16.9444 34.5244 18.1406 36 18.1406C37.4756 18.1406 38.6719 16.9444 38.6719 15.4688ZM36 0C33.3594 0 31.2188 2.14064 31.2188 4.78125V15.4688C31.2188 18.1094 33.3594 20.25 36 20.25C38.6406 20.25 40.7812 18.1094 40.7812 15.4688V4.78125C40.7812 2.14064 38.6406 0 36 0Z" fill="#EF6337"/>
<path opacity="0.3" fill-rule="evenodd" clip-rule="evenodd" d="M23.2395 19.5898L15.6823 12.0326C14.6388 10.9891 12.9471 10.9891 11.9037 12.0326C10.8602 13.076 10.8602 14.7677 11.9037 15.8112L19.4609 23.3684C20.5043 24.4118 22.196 24.4118 23.2395 23.3684C24.2829 22.3249 24.2829 20.6332 23.2395 19.5898ZM10.4121 10.541C8.54491 12.4082 8.54491 15.4355 10.4121 17.3027L17.9693 24.8599C19.8365 26.7271 22.8638 26.7271 24.731 24.8599C26.5982 22.9927 26.5982 19.9654 24.731 18.0982L17.1738 10.541C15.3066 8.67383 12.2793 8.67383 10.4121 10.541Z" fill="#EF6337"/>
<path opacity="0.7" fill-rule="evenodd" clip-rule="evenodd" d="M38.6719 67.2188V56.5312C38.6719 55.0556 37.4756 53.8594 36 53.8594C34.5244 53.8594 33.3281 55.0556 33.3281 56.5312V67.2188C33.3281 68.6944 34.5244 69.8906 36 69.8906C37.4756 69.8906 38.6719 68.6944 38.6719 67.2188ZM36 51.75C33.3594 51.75 31.2188 53.8906 31.2188 56.5312V67.2188C31.2188 69.8594 33.3594 72 36 72C38.6406 72 40.7812 69.8594 40.7812 67.2188V56.5312C40.7812 53.8906 38.6406 51.75 36 51.75Z" fill="#EF6337"/>
<path fill-rule="evenodd" clip-rule="evenodd" d="M67.2188 33.3281H56.5312C55.0556 33.3281 53.8594 34.5244 53.8594 36C53.8594 37.4756 55.0556 38.6719 56.5312 38.6719H67.2188C68.6944 38.6719 69.8906 37.4756 69.8906 36C69.8906 34.5244 68.6944 33.3281 67.2188 33.3281ZM51.75 36C51.75 38.6406 53.8906 40.7812 56.5312 40.7812H67.2188C69.8594 40.7812 72 38.6406 72 36C72 33.3594 69.8594 31.2188 67.2188 31.2188H56.5312C53.8906 31.2188 51.75 33.3594 51.75 36Z" fill="#EF6337"/>
<path opacity="0.8" fill-rule="evenodd" clip-rule="evenodd" d="M60.0832 56.1523L52.526 48.5951C51.4826 47.5516 49.7908 47.5516 48.7474 48.5951C47.704 49.6385 47.704 51.3302 48.7474 52.3737L56.3046 59.9309C57.348 60.9743 59.0398 60.9743 60.0832 59.9309C61.1266 58.8874 61.1266 57.1957 60.0832 56.1523ZM47.2559 47.1035C45.3887 48.9707 45.3887 51.998 47.2559 53.8652L54.8131 61.4224C56.6803 63.2896 59.7076 63.2896 61.5748 61.4224C63.442 59.5552 63.442 56.5279 61.5748 54.6607L54.0176 47.1035C52.1504 45.2363 49.123 45.2363 47.2559 47.1035Z" fill="#EF6337"/>
<path opacity="0.6" fill-rule="evenodd" clip-rule="evenodd" d="M15.6827 59.9426L23.2399 52.3854C24.2833 51.342 24.2833 49.6502 23.2399 48.6068C22.1965 47.5634 20.5047 47.5634 19.4613 48.6068L11.9041 56.164C10.8606 57.2074 10.8606 58.8992 11.9041 59.9426C12.9475 60.986 14.6393 60.986 15.6827 59.9426ZM24.7314 47.1152C22.8642 45.248 19.8369 45.248 17.9697 47.1152L10.4125 54.6724C8.54533 56.5396 8.54533 59.5669 10.4125 61.4341C12.2797 63.3013 15.307 63.3013 17.1742 61.4341L24.7314 53.8769C26.5986 52.0097 26.5986 48.9824 24.7314 47.1152Z" fill="#EF6337"/>
<path fill-rule="evenodd" clip-rule="evenodd" d="M54.5721 22.8138C54.1602 22.402 53.4924 22.402 53.0806 22.8138L52.5143 23.3801C51.4709 24.4235 49.7791 24.4235 48.7357 23.3801C47.6923 22.3367 47.6923 20.6449 48.7357 19.6015L56.2929 12.0443C57.3363 11.0009 59.0281 11.0009 60.0715 12.0443C61.1149 13.0877 61.1149 14.7795 60.0715 15.8229L56.7442 19.1502C56.3323 19.5621 56.3323 20.2299 56.7442 20.6417C57.1561 21.0536 57.8239 21.0536 58.2358 20.6417L61.5631 17.3144C63.4303 15.4473 63.4303 12.4199 61.5631 10.5527C59.6959 8.68555 56.6685 8.68555 54.8013 10.5527L47.2441 18.1099C45.377 19.9771 45.377 23.0045 47.2441 24.8717C49.1113 26.7388 52.1387 26.7388 54.0059 24.8717L54.5721 24.3054C54.984 23.8935 54.984 23.2257 54.5721 22.8138Z" fill="#EF6337"/>
<path opacity="0.4" fill-rule="evenodd" clip-rule="evenodd" d="M4.78125 33.3281H15.4688C16.9444 33.3281 18.1406 34.5244 18.1406 36C18.1406 37.4756 16.9444 38.6719 15.4688 38.6719H10.7578C10.1753 38.6719 9.70312 39.1441 9.70312 39.7266C9.70312 40.3091 10.1753 40.7812 10.7578 40.7812H15.4688C18.1094 40.7812 20.25 38.6406 20.25 36C20.25 33.3594 18.1094 31.2188 15.4688 31.2188H4.78125C2.14064 31.2188 0 33.3594 0 36C0 38.6406 2.14064 40.7812 4.78125 40.7812H5.55469C6.13718 40.7812 6.60938 40.3091 6.60938 39.7266C6.60938 39.1441 6.13718 38.6719 5.55469 38.6719H4.78125C3.30561 38.6719 2.10938 37.4756 2.10938 36C2.10938 34.5244 3.30561 33.3281 4.78125 33.3281Z" fill="#EF6337"/>
</svg>
