<svg width="140" height="70" viewBox="0 0 140 70" fill="none" xmlns="http://www.w3.org/2000/svg">
<path fill-rule="evenodd" clip-rule="evenodd" d="M70 68.3327C70 68.3327 85 58.3327 85 46.666C85 42.6878 83.4196 38.8725 80.6066 36.0594C77.7936 33.2464 73.9782 31.666 70 31.666C66.0218 31.666 62.2064 33.2464 59.3934 36.0594C56.5804 38.8725 55 42.6878 55 46.666C55 58.3327 70 68.3327 70 68.3327ZM75 46.666C75 49.4274 72.7614 51.666 70 51.666C67.2386 51.666 65 49.4274 65 46.666C65 43.9046 67.2386 41.666 70 41.666C72.7614 41.666 75 43.9046 75 46.666Z" fill="#EF6337"/>
<path d="M70 68.3327L69.4453 69.1647C69.7812 69.3887 70.2188 69.3887 70.5547 69.1647L70 68.3327ZM80.6066 36.0594L81.3137 35.3523L80.6066 36.0594ZM59.3934 36.0594L58.6863 35.3523L59.3934 36.0594ZM84 46.666C84 52.0974 80.4843 57.2703 76.774 61.1866C74.9394 63.1232 73.1013 64.7063 71.7208 65.8056C71.0314 66.3546 70.458 66.7814 70.059 67.0695C69.8596 67.2136 69.7038 67.3229 69.5991 67.3954C69.5467 67.4317 69.5071 67.4588 69.4812 67.4764C69.4682 67.4852 69.4586 67.4917 69.4526 67.4957C69.4496 67.4977 69.4475 67.4992 69.4463 67.5C69.4457 67.5004 69.4453 67.5006 69.4451 67.5008C69.445 67.5008 69.4451 67.5008 69.445 67.5008C69.4451 67.5007 69.4453 67.5006 70 68.3327C70.5547 69.1647 70.555 69.1645 70.5553 69.1643C70.5555 69.1642 70.5559 69.1639 70.5563 69.1637C70.557 69.1632 70.558 69.1625 70.5592 69.1617C70.5616 69.1601 70.5649 69.1579 70.5691 69.1551C70.5775 69.1494 70.5895 69.1413 70.6049 69.1309C70.6357 69.1099 70.6803 69.0794 70.7378 69.0396C70.8528 68.96 71.0193 68.8431 71.23 68.6909C71.6513 68.3866 72.2499 67.9409 72.9667 67.3702C74.3987 66.2299 76.3106 64.5838 78.226 62.5621C82.0157 58.5618 86 52.9013 86 46.666H84ZM79.8995 36.7665C82.525 39.392 84 42.953 84 46.666H86C86 42.4226 84.3143 38.3529 81.3137 35.3523L79.8995 36.7665ZM70 32.666C73.713 32.666 77.274 34.141 79.8995 36.7665L81.3137 35.3523C78.3131 32.3517 74.2435 30.666 70 30.666V32.666ZM60.1005 36.7665C62.726 34.141 66.287 32.666 70 32.666V30.666C65.7565 30.666 61.6869 32.3517 58.6863 35.3523L60.1005 36.7665ZM56 46.666C56 42.953 57.475 39.392 60.1005 36.7665L58.6863 35.3523C55.6857 38.3529 54 42.4226 54 46.666H56ZM70 68.3327C70.5547 67.5006 70.5549 67.5007 70.555 67.5008C70.5549 67.5008 70.555 67.5008 70.5549 67.5008C70.5547 67.5006 70.5543 67.5004 70.5537 67.5C70.5525 67.4992 70.5504 67.4977 70.5474 67.4957C70.5414 67.4917 70.5318 67.4852 70.5188 67.4764C70.4929 67.4588 70.4533 67.4317 70.4009 67.3954C70.2962 67.3229 70.1404 67.2136 69.941 67.0695C69.542 66.7814 68.9686 66.3546 68.2792 65.8056C66.8987 64.7063 65.0606 63.1232 63.226 61.1866C59.5157 57.2703 56 52.0974 56 46.666H54C54 52.9013 57.9843 58.5618 61.774 62.5621C63.6894 64.5838 65.6013 66.2299 67.0333 67.3702C67.7501 67.9409 68.3487 68.3866 68.77 68.6909C68.9807 68.8431 69.1472 68.96 69.2622 69.0396C69.3197 69.0794 69.3643 69.1099 69.3951 69.1309C69.4105 69.1413 69.4225 69.1494 69.4309 69.1551C69.4351 69.1579 69.4384 69.1601 69.4408 69.1617C69.442 69.1625 69.443 69.1632 69.4437 69.1637C69.4441 69.1639 69.4445 69.1642 69.4447 69.1643C69.445 69.1645 69.4453 69.1647 70 68.3327ZM70 52.666C73.3137 52.666 76 49.9797 76 46.666H74C74 48.8752 72.2091 50.666 70 50.666V52.666ZM64 46.666C64 49.9797 66.6863 52.666 70 52.666V50.666C67.7909 50.666 66 48.8752 66 46.666H64ZM70 40.666C66.6863 40.666 64 43.3523 64 46.666H66C66 44.4569 67.7909 42.666 70 42.666V40.666ZM76 46.666C76 43.3523 73.3137 40.666 70 40.666V42.666C72.2091 42.666 74 44.4569 74 46.666H76Z" fill="#222222"/>
<path d="M6.90835 20C6.23511 20 5.63072 19.9699 5.09519 19.9096C4.57496 19.8493 4.00118 19.7363 3.37384 19.5706C2.67 19.3898 2.08857 19.1563 1.62954 18.8701C1.17052 18.5687 0.787995 18.1544 0.481978 17.6271C0.160659 17.0998 0 16.4746 0 15.7514V9.31073C0 6.35782 2.30278 4.88136 6.90835 4.88136C8.08652 4.88136 9.66251 5.04708 11.6363 5.37853V8.0226C9.86142 7.60075 8.30073 7.38983 6.95425 7.38983C6.38812 7.38983 5.94439 7.4049 5.62307 7.43503C5.31706 7.46516 4.99574 7.54049 4.65912 7.66102C3.93998 7.90207 3.58041 8.43691 3.58041 9.26554V15.5028C3.58041 16.8286 4.81213 17.4915 7.27557 17.4915C8.33133 17.4915 9.81551 17.2731 11.7281 16.8362V19.5028C10.0909 19.8343 8.48434 20 6.90835 20Z" fill="#222222"/>
<path d="M20.7406 20C19.9144 20 19.1493 19.9473 18.4455 19.8418C17.757 19.7363 17.0378 19.5556 16.2881 19.2994C15.4771 19.0282 14.8422 18.5913 14.3831 17.9887C13.9241 17.371 13.6946 16.6252 13.6946 15.7514V9.33333C13.6946 8.61017 13.8552 7.96234 14.1766 7.38983C14.5132 6.81733 14.9416 6.36535 15.4618 6.0339C15.9209 5.74765 16.487 5.50659 17.1602 5.31073C17.8335 5.11488 18.4608 4.99435 19.0422 4.94915C19.5778 4.90395 20.1439 4.88136 20.7406 4.88136C21.4445 4.88136 22.0565 4.91149 22.5767 4.97175C23.097 5.01695 23.6784 5.12241 24.321 5.28814C25.0555 5.49906 25.6599 5.75518 26.1342 6.0565C26.6085 6.35782 27.0063 6.77966 27.3277 7.32203C27.6643 7.87947 27.8326 8.54991 27.8326 9.33333V15.7514C27.8326 16.565 27.6107 17.2655 27.167 17.8531C26.7386 18.4407 26.1418 18.8851 25.3768 19.1864C23.9997 19.7288 22.4543 20 20.7406 20ZM20.7865 17.4915C21.2915 17.4915 21.7122 17.4765 22.0489 17.4463C22.4008 17.4011 22.7604 17.3258 23.1276 17.2203C23.4948 17.1149 23.7702 16.9416 23.9538 16.7006C24.1527 16.4444 24.2522 16.1281 24.2522 15.7514V9.31073C24.2522 8.6177 23.9691 8.12806 23.403 7.84181C22.8369 7.54049 21.9571 7.38983 20.7636 7.38983C19.5701 7.38983 18.6903 7.53296 18.1242 7.81921C17.5581 8.10546 17.275 8.60264 17.275 9.31073V15.7514C17.275 16.1281 17.3744 16.4444 17.5734 16.7006C17.7723 16.9416 18.063 17.1149 18.4455 17.2203C18.8127 17.3258 19.1646 17.4011 19.5013 17.4463C19.8532 17.4765 20.2816 17.4915 20.7865 17.4915Z" fill="#222222"/>
<path d="M30.7139 5.10734H34.2943V10.8927C34.9675 10.8927 35.5107 10.7721 35.9238 10.5311C36.337 10.275 36.7883 9.79284 37.278 9.08475L40.078 5.10734H44.0945L40.8813 9.51412C40.3917 10.1921 39.9403 10.7119 39.5272 11.0734C39.1294 11.42 38.6321 11.7062 38.0354 11.9322V11.9774C38.8004 12.1582 39.4354 12.4821 39.9403 12.9492C40.4605 13.4162 40.9655 14.0942 41.4551 14.9831L44.0945 19.774H40.078L37.6452 15.4576C37.3239 14.8851 37.0102 14.4557 36.7042 14.1695C36.4135 13.8682 36.0845 13.6648 35.7173 13.5593C35.35 13.4539 34.8757 13.4011 34.2943 13.4011V19.774H30.7139V5.10734Z" fill="#222222"/>
<path d="M52.478 20C51.6518 20 50.8867 19.9473 50.1829 19.8418C49.4943 19.7363 48.7752 19.5556 48.0255 19.2994C47.2145 19.0282 46.5795 18.5913 46.1205 17.9887C45.6615 17.371 45.432 16.6252 45.432 15.7514V9.33333C45.432 8.61017 45.5926 7.96234 45.9139 7.38983C46.2505 6.81733 46.679 6.36535 47.1992 6.0339C47.6582 5.74765 48.2244 5.50659 48.8976 5.31073C49.5708 5.11488 50.1982 4.99435 50.7796 4.94915C51.3151 4.90395 51.8813 4.88136 52.478 4.88136C53.1819 4.88136 53.7939 4.91149 54.3141 4.97175C54.8343 5.01695 55.4158 5.12241 56.0584 5.28814C56.7929 5.49906 57.3972 5.75518 57.8716 6.0565C58.3459 6.35782 58.7437 6.77966 59.065 7.32203C59.4017 7.87947 59.57 8.54991 59.57 9.33333V15.7514C59.57 16.565 59.3481 17.2655 58.9044 17.8531C58.476 18.4407 57.8792 18.8851 57.1142 19.1864C55.7371 19.7288 54.1917 20 52.478 20ZM52.5239 17.4915C53.0288 17.4915 53.4496 17.4765 53.7862 17.4463C54.1382 17.4011 54.4977 17.3258 54.8649 17.2203C55.2322 17.1149 55.5076 16.9416 55.6912 16.7006C55.8901 16.4444 55.9896 16.1281 55.9896 15.7514V9.31073C55.9896 8.6177 55.7065 8.12806 55.1404 7.84181C54.5742 7.54049 53.6944 7.38983 52.501 7.38983C51.3075 7.38983 50.4277 7.53296 49.8616 7.81921C49.2954 8.10546 49.0124 8.60264 49.0124 9.31073V15.7514C49.0124 16.1281 49.1118 16.4444 49.3107 16.7006C49.5096 16.9416 49.8004 17.1149 50.1829 17.2203C50.5501 17.3258 50.902 17.4011 51.2386 17.4463C51.5906 17.4765 52.019 17.4915 52.5239 17.4915Z" fill="#222222"/>
<path d="M74.3278 20C73.6546 20 73.0502 19.9699 72.5147 19.9096C71.9945 19.8493 71.4207 19.7363 70.7933 19.5706C70.0895 19.3898 69.5081 19.1563 69.049 18.8701C68.59 18.5687 68.2075 18.1544 67.9015 17.6271C67.5802 17.0998 67.4195 16.4746 67.4195 15.7514V9.31073C67.4195 6.35782 69.7223 4.88136 74.3278 4.88136C75.506 4.88136 77.082 5.04708 79.0558 5.37853V8.0226C77.2809 7.60075 75.7202 7.38983 74.3737 7.38983C73.8076 7.38983 73.3639 7.4049 73.0426 7.43503C72.7365 7.46516 72.4152 7.54049 72.0786 7.66102C71.3595 7.90207 70.9999 8.43691 70.9999 9.26554V15.5028C70.9999 16.8286 72.2316 17.4915 74.6951 17.4915C75.7508 17.4915 77.235 17.2731 79.1476 16.8362V19.5028C77.5104 19.8343 75.9038 20 74.3278 20Z" fill="#222222"/>
<path d="M81.4354 5.10734H94.5635V19.774H90.9831V7.59322H85.0158V19.774H81.4354V5.10734Z" fill="#222222"/>
<path d="M97.7748 5.10734H109.136V7.61582H101.355V10.9831H108.378V13.4915H101.355V17.2655H109.365V19.774H97.7748V5.10734Z" fill="#222222"/>
<path d="M111.783 5.10734H115.364V15.1412L121.79 5.10734H125.37V19.774H121.79V9.58192L115.364 19.774H111.783V5.10734ZM118.6 3.54802C117.085 3.54802 115.937 3.22411 115.157 2.57627C114.377 1.91337 113.986 1.05461 113.986 0H116.855C116.932 0.647835 117.1 1.10735 117.36 1.37853C117.636 1.64972 118.049 1.78531 118.6 1.78531C119.151 1.78531 119.556 1.64972 119.816 1.37853C120.092 1.10735 120.267 0.647835 120.344 0H123.213C123.213 1.05461 122.823 1.91337 122.042 2.57627C121.262 3.22411 120.114 3.54802 118.6 3.54802Z" fill="#222222"/>
<path d="M135.18 20C134.507 20 133.903 19.9699 133.367 19.9096C132.847 19.8493 132.273 19.7363 131.646 19.5706C130.942 19.3898 130.36 19.1563 129.901 18.8701C129.442 18.5687 129.06 18.1544 128.754 17.6271C128.433 17.0998 128.272 16.4746 128.272 15.7514V9.31073C128.272 6.35782 130.575 4.88136 135.18 4.88136C136.358 4.88136 137.934 5.04708 139.908 5.37853V8.0226C138.133 7.60075 136.573 7.38983 135.226 7.38983C134.66 7.38983 134.216 7.4049 133.895 7.43503C133.589 7.46516 133.268 7.54049 132.931 7.66102C132.212 7.90207 131.852 8.43691 131.852 9.26554V15.5028C131.852 16.8286 133.084 17.4915 135.547 17.4915C136.603 17.4915 138.087 17.2731 140 16.8362V19.5028C138.363 19.8343 136.756 20 135.18 20Z" fill="#222222"/>
</svg>
