<svg width="160" height="23" viewBox="0 0 160 23" fill="none" xmlns="http://www.w3.org/2000/svg">
<path d="M7.89525 23C7.12584 23 6.43511 22.9653 5.82308 22.896C5.22853 22.8267 4.57278 22.6968 3.85582 22.5062C3.05143 22.2983 2.38694 22.0298 1.86234 21.7006C1.33773 21.354 0.900566 20.8776 0.550832 20.2712C0.183611 19.6648 0 18.9458 0 18.1141V10.7073C0 7.31149 2.63175 5.61356 7.89525 5.61356C9.24173 5.61356 11.0429 5.80414 13.2987 6.18531V9.22599C11.2702 8.74087 9.48655 8.49831 7.94772 8.49831C7.30071 8.49831 6.79359 8.51563 6.42637 8.55028C6.07664 8.58494 5.70941 8.67156 5.32471 8.81017C4.50283 9.08738 4.09189 9.70245 4.09189 10.6554V17.8283C4.09189 19.3529 5.49957 20.1153 8.31494 20.1153C9.52152 20.1153 11.2177 19.864 13.4036 19.3616V22.4282C11.5325 22.8094 9.69639 23 7.89525 23Z" fill="white"/>
<path d="M23.7036 23C22.7593 23 21.885 22.9394 21.0806 22.8181C20.2937 22.6968 19.4718 22.4889 18.615 22.1944C17.6882 21.8825 16.9625 21.38 16.4379 20.687C15.9133 19.9767 15.651 19.119 15.651 18.1141V10.7333C15.651 9.90169 15.8346 9.15669 16.2018 8.49831C16.5865 7.83993 17.0761 7.32015 17.6707 6.93898C18.1953 6.60979 18.8423 6.33258 19.6117 6.10734C20.3811 5.88211 21.0981 5.7435 21.7626 5.69153C22.3746 5.63955 23.0216 5.61356 23.7036 5.61356C24.508 5.61356 25.2074 5.64821 25.802 5.71751C26.3965 5.76949 27.061 5.89077 27.7955 6.08136C28.6348 6.32392 29.3256 6.61846 29.8677 6.96497C30.4097 7.31149 30.8644 7.79661 31.2316 8.42034C31.6163 9.06139 31.8087 9.83239 31.8087 10.7333V18.1141C31.8087 19.0497 31.5551 19.8554 31.048 20.5311C30.5584 21.2068 29.8764 21.7179 29.0021 22.0644C27.4283 22.6881 25.6621 23 23.7036 23ZM23.7561 20.1153C24.3331 20.1153 24.814 20.0979 25.1987 20.0633C25.6009 20.0113 26.0118 19.9247 26.4315 19.8034C26.8512 19.6821 27.166 19.4829 27.3758 19.2057C27.6031 18.9111 27.7168 18.5473 27.7168 18.1141V10.7073C27.7168 9.91036 27.3933 9.34727 26.7463 9.01808C26.0993 8.67156 25.0938 8.49831 23.7298 8.49831C22.3659 8.49831 21.3604 8.6629 20.7134 8.99209C20.0664 9.32128 19.7428 9.89303 19.7428 10.7073V18.1141C19.7428 18.5473 19.8565 18.9111 20.0838 19.2057C20.3112 19.4829 20.6434 19.6821 21.0806 19.8034C21.5003 19.9247 21.9025 20.0113 22.2872 20.0633C22.6894 20.0979 23.179 20.1153 23.7561 20.1153Z" fill="white"/>
<path d="M35.1016 5.87345H39.1935V12.5266C39.9629 12.5266 40.5837 12.3879 41.0558 12.1107C41.528 11.8162 42.0438 11.2618 42.6034 10.4475L45.8035 5.87345H50.3937L46.7215 10.9412C46.1619 11.7209 45.6461 12.3186 45.1739 12.7345C44.7193 13.133 44.151 13.4621 43.469 13.722V13.774C44.3433 13.9819 45.069 14.3544 45.6461 14.8915C46.2406 15.4286 46.8177 16.2083 47.3773 17.2305L50.3937 22.7401H45.8035L43.0231 17.7763C42.6558 17.1179 42.2974 16.6241 41.9476 16.2949C41.6154 15.9484 41.2394 15.7145 40.8197 15.5932C40.4001 15.4719 39.858 15.4113 39.1935 15.4113V22.7401H35.1016V5.87345Z" fill="white"/>
<path d="M59.9749 23C59.0306 23 58.1562 22.9394 57.3519 22.8181C56.565 22.6968 55.7431 22.4889 54.8862 22.1944C53.9594 21.8825 53.2337 21.38 52.7091 20.687C52.1845 19.9767 51.9222 19.119 51.9222 18.1141V10.7333C51.9222 9.90169 52.1058 9.15669 52.4731 8.49831C52.8578 7.83993 53.3474 7.32015 53.942 6.93898C54.4666 6.60979 55.1136 6.33258 55.883 6.10734C56.6524 5.88211 57.3693 5.7435 58.0338 5.69153C58.6459 5.63955 59.2929 5.61356 59.9749 5.61356C60.7793 5.61356 61.4787 5.64821 62.0733 5.71751C62.6678 5.76949 63.3323 5.89077 64.0668 6.08136C64.9061 6.32392 65.5968 6.61846 66.1389 6.96497C66.681 7.31149 67.1357 7.79661 67.5029 8.42034C67.8876 9.06139 68.08 9.83239 68.08 10.7333V18.1141C68.08 19.0497 67.8264 19.8554 67.3193 20.5311C66.8297 21.2068 66.1477 21.7179 65.2733 22.0644C63.6995 22.6881 61.9334 23 59.9749 23ZM60.0273 20.1153C60.6044 20.1153 61.0853 20.0979 61.47 20.0633C61.8722 20.0113 62.2831 19.9247 62.7028 19.8034C63.1225 19.6821 63.4372 19.4829 63.6471 19.2057C63.8744 18.9111 63.9881 18.5473 63.9881 18.1141V10.7073C63.9881 9.91036 63.6646 9.34727 63.0176 9.01808C62.3706 8.67156 61.3651 8.49831 60.0011 8.49831C58.6371 8.49831 57.6316 8.6629 56.9846 8.99209C56.3376 9.32128 56.0141 9.89303 56.0141 10.7073V18.1141C56.0141 18.5473 56.1278 18.9111 56.3551 19.2057C56.5824 19.4829 56.9147 19.6821 57.3519 19.8034C57.7715 19.9247 58.1737 20.0113 58.5584 20.0633C58.9606 20.0979 59.4503 20.1153 60.0273 20.1153Z" fill="white"/>
<path d="M84.9461 23C84.1767 23 83.486 22.9653 82.8739 22.896C82.2794 22.8267 81.6236 22.6968 80.9067 22.5062C80.1023 22.2983 79.4378 22.0298 78.9132 21.7006C78.3886 21.354 77.9514 20.8776 77.6017 20.2712C77.2345 19.6648 77.0509 18.9458 77.0509 18.1141V10.7073C77.0509 7.31149 79.6826 5.61356 84.9461 5.61356C86.2926 5.61356 88.0937 5.80414 90.3495 6.18531V9.22599C88.321 8.74087 86.5374 8.49831 84.9986 8.49831C84.3516 8.49831 83.8444 8.51563 83.4772 8.55028C83.1275 8.58494 82.7603 8.67156 82.3756 8.81017C81.5537 9.08738 81.1427 9.70245 81.1427 10.6554V17.8283C81.1427 19.3529 82.5504 20.1153 85.3658 20.1153C86.5724 20.1153 88.2686 19.864 90.4544 19.3616V22.4282C88.5833 22.8094 86.7472 23 84.9461 23Z" fill="white"/>
<path d="M93.069 5.87345H108.073V22.7401H103.981V8.7322H97.1609V22.7401H93.069V5.87345Z" fill="white"/>
<path d="M111.743 5.87345H124.726V8.75819H115.834V12.6305H123.861V15.5153H115.834V19.8554H124.989V22.7401H111.743V5.87345Z" fill="white"/>
<path d="M127.752 5.87345H131.844V17.4124L139.188 5.87345H143.28V22.7401H139.188V11.0192L131.844 22.7401H127.752V5.87345ZM135.542 4.08023C133.811 4.08023 132.5 3.70772 131.608 2.96271C130.716 2.20038 130.27 1.21281 130.27 0H133.549C133.636 0.74501 133.829 1.27345 134.126 1.58531C134.441 1.89718 134.913 2.05311 135.542 2.05311C136.172 2.05311 136.635 1.89718 136.933 1.58531C137.247 1.27345 137.449 0.74501 137.536 0H140.815C140.815 1.21281 140.369 2.20038 139.477 2.96271C138.585 3.70772 137.274 4.08023 135.542 4.08023Z" fill="white"/>
<path d="M154.492 23C153.722 23 153.032 22.9653 152.42 22.896C151.825 22.8267 151.169 22.6968 150.452 22.5062C149.648 22.2983 148.983 22.0298 148.459 21.7006C147.934 21.354 147.497 20.8776 147.147 20.2712C146.78 19.6648 146.596 18.9458 146.596 18.1141V10.7073C146.596 7.31149 149.228 5.61356 154.492 5.61356C155.838 5.61356 157.639 5.80414 159.895 6.18531V9.22599C157.867 8.74087 156.083 8.49831 154.544 8.49831C153.897 8.49831 153.39 8.51563 153.023 8.55028C152.673 8.58494 152.306 8.67156 151.921 8.81017C151.099 9.08738 150.688 9.70245 150.688 10.6554V17.8283C150.688 19.3529 152.096 20.1153 154.911 20.1153C156.118 20.1153 157.814 19.864 160 19.3616V22.4282C158.129 22.8094 156.293 23 154.492 23Z" fill="white"/>
</svg>
