<svg width="0" height="0" class="hidden">
  <symbol xmlns="http://www.w3.org/2000/svg" viewBox="0 0 34 34" id="ic_arrow">
    <path d="M5 16C4.44772 16 4 16.4477 4 17C4 17.5523 4.44772 18 5 18V16ZM29 17L29.7071 17.7071C30.0976 17.3166 30.0976 16.6834 29.7071 16.2929L29 17ZM17.7071 4.29289C17.3166 3.90237 16.6834 3.90237 16.2929 4.29289C15.9024 4.68342 15.9024 5.31658 16.2929 5.70711L17.7071 4.29289ZM16.2929 28.2929C15.9024 28.6834 15.9024 29.3166 16.2929 29.7071C16.6834 30.0976 17.3166 30.0976 17.7071 29.7071L16.2929 28.2929ZM5 18H29V16H5V18ZM16.2929 5.70711L28.2929 17.7071L29.7071 16.2929L17.7071 4.29289L16.2929 5.70711ZM28.2929 16.2929L16.2929 28.2929L17.7071 29.7071L29.7071 17.7071L28.2929 16.2929Z" fill="currentColor"></path>
  </symbol>
  <symbol xmlns="http://www.w3.org/2000/svg" viewBox="0 0 48 48" id="ic_close">
    <rect x="39.5566" y="5.61523" width="4" height="48" transform="rotate(45 39.5566 5.61523)" fill="currentColor"></rect>
    <rect x="5.61523" y="8.44336" width="4" height="48" transform="rotate(-45 5.61523 8.44336)" fill="currentColor"></rect>
  </symbol>
  <symbol xmlns="http://www.w3.org/2000/svg" viewBox="0 0 24 24" id="ic_file">
    <path d="M21.4383 11.6622L12.2483 20.8522C11.1225 21.9781 9.59552 22.6106 8.00334 22.6106C6.41115 22.6106 4.88418 21.9781 3.75834 20.8522C2.63249 19.7264 2 18.1994 2 16.6072C2 15.015 2.63249 13.4881 3.75834 12.3622L12.9483 3.17222C13.6989 2.42166 14.7169 2 15.7783 2C16.8398 2 17.8578 2.42166 18.6083 3.17222C19.3589 3.92279 19.7806 4.94077 19.7806 6.00222C19.7806 7.06368 19.3589 8.08166 18.6083 8.83222L9.40834 18.0222C9.03306 18.3975 8.52406 18.6083 7.99334 18.6083C7.46261 18.6083 6.95362 18.3975 6.57834 18.0222C6.20306 17.6469 5.99222 17.138 5.99222 16.6072C5.99222 16.0765 6.20306 15.5675 6.57834 15.1922L15.0683 6.71222" stroke="currentColor" stroke-width="2" stroke-linecap="round" stroke-linejoin="round" fill="none"></path>
  </symbol>
  <symbol xmlns="http://www.w3.org/2000/svg" viewBox="0 0 23 25" id="ic_link_arrow">
    <path d="M4.95049 19.4495C4.55997 19.84 4.55997 20.4732 4.95049 20.8637C5.34102 21.2543 5.97418 21.2543 6.36471 20.8637L4.95049 19.4495ZM16.9713 8.84291L17.9713 8.84291C17.9713 8.29063 17.5236 7.84291 16.9713 7.84291V8.84291ZM5.6576 7.84291C5.10531 7.84291 4.6576 8.29063 4.6576 8.84291C4.6576 9.3952 5.10531 9.84291 5.6576 9.84291L5.6576 7.84291ZM15.9713 20.1566C15.9713 20.7089 16.419 21.1566 16.9713 21.1566C17.5236 21.1566 17.9713 20.7089 17.9713 20.1566L15.9713 20.1566ZM6.36471 20.8637L17.6784 9.55002L16.2642 8.13581L4.95049 19.4495L6.36471 20.8637ZM5.6576 9.84291H16.9713L16.9713 7.84291H5.6576L5.6576 9.84291ZM15.9713 8.84291L15.9713 20.1566L17.9713 20.1566L17.9713 8.84291L15.9713 8.84291Z" fill="currentColor"></path>
  </symbol>
  <symbol xmlns="http://www.w3.org/2000/svg" viewBox="0 0 20 20" id="ic_menu">
    <path d="M2.5 10H17.5" stroke="currentColor" stroke-width="2" stroke-linecap="square" stroke-linejoin="round" fill="none"></path>
    <path d="M2.5 5H17.5" stroke="currentColor" stroke-width="2" stroke-linecap="square" stroke-linejoin="round" fill="none"></path>
    <path d="M2.5 15H17.5" stroke="currentColor" stroke-width="2" stroke-linecap="square" stroke-linejoin="round" fill="none"></path>
  </symbol>
</svg>